<?xml version="1.0" encoding="UTF-8"?>
<svg version="1.1" xmlns="http://www.w3.org/2000/svg" width="512" height="512">
<path d="M0 0 C3.49038117 1.79548426 6.75500173 3.79529261 10 6 C11.3303125 6.86625 11.3303125 6.86625 12.6875 7.75 C22.13490509 16.94206982 26.25784143 27.90956354 26.49609375 40.9296875 C26.51957237 44.24587994 26.48580602 47.55915931 26.4375 50.875 C26.43034973 51.74093781 26.42319946 52.60687561 26.41583252 53.49905396 C26.19085672 79.62489691 21.33077148 103.57474018 13.38183594 128.4140625 C13.05649872 129.43346924 12.7311615 130.45287598 12.39596558 131.50317383 C11.59821016 134.00240483 10.7995307 136.50133649 10 139 C10.92930612 139.00219984 10.92930612 139.00219984 11.87738609 139.00444412 C26.98585816 139.04157403 42.09407328 139.10067017 57.20235252 139.18390274 C64.50876587 139.22363032 71.81507248 139.25605454 79.12158203 139.27099609 C85.49354223 139.28404537 91.86526697 139.31109289 98.23709452 139.35461307 C101.60773114 139.37715491 104.97807817 139.39291511 108.34879684 139.39188385 C112.12139685 139.39425705 115.89308509 139.42136829 119.66552734 139.45410156 C120.77036469 139.4490712 121.87520203 139.44404083 123.01351929 139.43885803 C132.72797297 139.56878095 141.10007804 141.93961474 148 149 C153.4621512 156.21186537 156.13923754 163.92936188 155 173 C152.81334828 182.17869972 148.44949288 189.48859022 140.3125 194.5 C137 196 137 196 133 196 C133 196.66 133 197.32 133 198 C133.825 198.04125 134.65 198.0825 135.5 198.125 C143.08740002 200.02185001 147.81690173 205.27363896 151.8125 211.77734375 C155.40061513 218.49325661 156.12973242 225.44255671 154.3125 232.7734375 C150.71581877 243.71334292 144.9744661 248.61851928 135 254 C135.56847656 254.268125 136.13695312 254.53625 136.72265625 254.8125 C144.77755952 258.90046426 150.59559746 264.48899364 154 273 C156.22674643 280.69239675 155.4208572 288.81186969 152 296 C146.55098895 303.7083571 140.40472734 309.06972904 131 311 C129.2683761 311.1437323 127.53301667 311.24574932 125.796875 311.31640625 C124.8171875 311.35830078 123.8375 311.40019531 122.828125 311.44335938 C121.81234375 311.48267578 120.7965625 311.52199219 119.75 311.5625 C118.71875 311.60568359 117.6875 311.64886719 116.625 311.69335938 C114.0834613 311.79925682 111.54182804 311.90133443 109 312 C109.53906982 312.32250732 110.07813965 312.64501465 110.63354492 312.97729492 C111.34615479 313.41146729 112.05876465 313.84563965 112.79296875 314.29296875 C113.49703857 314.71860107 114.2011084 315.1442334 114.92651367 315.58276367 C120.69558 319.52594394 124.62649179 325.14381024 126 332 C127.01705464 341.79385945 125.73973836 350.31264605 119.75 358.3125 C110.15113395 367.69321001 100.07881817 368.29935326 87.17456055 368.25878906 C85.78550534 368.26150342 84.39645158 368.26506685 83.00740051 368.26940918 C79.25048378 368.27849187 75.4936775 368.27500351 71.73675895 368.26865101 C67.78184463 368.2635585 63.82693926 368.26829247 59.87202454 368.27142334 C53.22024864 368.27505824 46.56851719 368.2702813 39.91674805 368.26074219 C32.27454964 368.24990782 24.6324584 368.25334842 16.99026269 368.264395 C10.3945207 368.27354071 3.79881056 368.27471647 -2.79693574 368.26951766 C-6.7204543 368.26643125 -10.64392296 368.26589417 -14.56743813 368.27259064 C-55.54835345 368.33300823 -55.54835345 368.33300823 -71.875 363.8125 C-72.75502686 363.57764893 -73.63505371 363.34279785 -74.54174805 363.10083008 C-90.13138131 358.75576561 -105.4426536 353.3471702 -120.76953125 348.16796875 C-121.6705809 347.86402191 -122.57163055 347.56007507 -123.49998474 347.24691772 C-124.3273262 346.96587189 -125.15466766 346.68482605 -126.00708008 346.39526367 C-127.09548943 346.02603035 -127.09548943 346.02603035 -128.20588684 345.64933777 C-130 345 -130 345 -132 344 C-132 276.02 -132 208.04 -132 138 C-126.06 135.69 -120.12 133.38 -114 131 C-78.1849997 112.22320373 -60.69589927 75.08068589 -49.10380554 38.0514679 C-47.31576598 32.25916274 -45.59943646 26.44687784 -43.91015625 20.625 C-43.58225098 19.49634521 -43.2543457 18.36769043 -42.91650391 17.20483398 C-42.32935882 15.15170303 -41.75728221 13.09416649 -41.20458984 11.03149414 C-40.96047363 10.14582764 -40.71635742 9.26016113 -40.46484375 8.34765625 C-40.16308228 7.20695679 -40.16308228 7.20695679 -39.85522461 6.04321289 C-38.31484444 2.36309824 -35.33727875 0.05546032 -32 -2 C-22.60030634 -5.13323122 -9.01244589 -3.84817134 0 0 Z " fill="#008AE6" transform="translate(236,48)"/>
<path d="M0 0 C0 67.98 0 135.96 0 206 C-67.81939602 206 -67.81939602 206 -73.85119057 200.2287817 C-75.51908431 196.99293514 -75.41380689 193.89512602 -75.38095093 190.3394928 C-75.3856309 189.56372798 -75.39031087 188.78796316 -75.39513266 187.98869032 C-75.40710721 185.3868994 -75.39761593 182.78563281 -75.38818359 180.18383789 C-75.39224824 178.31945996 -75.39758952 176.45508444 -75.40411377 174.5907135 C-75.41780684 169.5246006 -75.41248024 164.45867069 -75.40297651 159.39255452 C-75.39538912 154.0937648 -75.40242307 148.79499089 -75.40713501 143.49620056 C-75.41259572 134.59615258 -75.40539316 125.69617923 -75.39111328 116.79614258 C-75.3747912 106.50439915 -75.38007083 96.21283405 -75.3965925 85.92109495 C-75.41020435 77.08872197 -75.41212834 68.2564027 -75.40427649 59.42402261 C-75.39959768 54.1471902 -75.39898076 48.87044162 -75.40888596 43.59361458 C-75.41754875 38.63187116 -75.41154619 33.67035771 -75.39420319 28.70863914 C-75.39023447 26.88693753 -75.39137897 25.06521658 -75.39799118 23.24352264 C-75.4061817 20.75791695 -75.39591551 18.27304943 -75.38095093 15.78749084 C-75.38764309 15.06550335 -75.39433526 14.34351586 -75.40123022 13.59964997 C-75.35006348 9.22197424 -74.77978364 6.42020997 -72 3 C-51.40231309 -9.35861214 -24.0208243 0 0 0 Z " fill="#008AE6" transform="translate(75,186)"/>
<path d="M0 0 C4.50437282 4.39451006 6.77478698 9.10372327 6.953125 15.4375 C6.92695526 17.12544806 6.8798686 18.81319385 6.8125 20.5 C6.79445313 21.37011719 6.77640625 22.24023438 6.7578125 23.13671875 C6.71118436 25.25829907 6.63946077 27.37930335 6.5625 29.5 C7.7690625 29.46519531 8.975625 29.43039063 10.21875 29.39453125 C11.83331928 29.36637016 13.44790379 29.33907251 15.0625 29.3125 C15.85398437 29.28736328 16.64546875 29.26222656 17.4609375 29.23632812 C23.44175646 29.16279347 29.47396111 29.70165939 34.12670898 33.91723633 C37.13264517 37.38167798 38.42848266 40.13302313 38.875 44.6875 C38.38661325 50.64581838 36.55197116 54.68588286 32.125 58.72265625 C27.09332156 61.23297828 22.72224661 60.93568182 17.1875 60.75 C15.65416016 60.72292969 15.65416016 60.72292969 14.08984375 60.6953125 C11.57975251 60.64839491 9.07162236 60.58276729 6.5625 60.5 C6.61470703 62.43552734 6.61470703 62.43552734 6.66796875 64.41015625 C6.69612342 66.12759106 6.72342177 67.84504007 6.75 69.5625 C6.77513672 70.41005859 6.80027344 71.25761719 6.82617188 72.13085938 C6.90801898 79.19699315 5.82365017 83.89967731 1.0625 89.375 C-3.03232331 92.85559982 -6.76950838 92.84499552 -11.93359375 92.77734375 C-16.84429088 92.23341318 -19.43693778 89.63518332 -22.5859375 86.0625 C-25.53849716 81.51185524 -24.86274821 76.34874486 -24.6875 71.125 C-24.66945313 70.10277344 -24.65140625 69.08054687 -24.6328125 68.02734375 C-24.58589491 65.51725251 -24.52026729 63.00912236 -24.4375 60.5 C-25.07252441 60.52094727 -25.70754883 60.54189453 -26.36181641 60.56347656 C-29.26188076 60.64704581 -32.16169116 60.69878774 -35.0625 60.75 C-36.06152344 60.78351562 -37.06054688 60.81703125 -38.08984375 60.8515625 C-44.24809332 60.93312872 -47.75778934 60.61724543 -52.4375 56.5 C-55.86667072 52.80010527 -56.73719749 49.9207651 -56.9375 45 C-56.74441801 40.09971232 -55.84863589 37.18771447 -52.4375 33.5 C-48.0465241 30.31654247 -44.24471358 29.36616748 -38.890625 29.40234375 C-38.04628906 29.40556641 -37.20195312 29.40878906 -36.33203125 29.41210938 C-35.45933594 29.42048828 -34.58664062 29.42886719 -33.6875 29.4375 C-32.79933594 29.44201172 -31.91117187 29.44652344 -30.99609375 29.45117188 C-28.80982671 29.462926 -26.62369821 29.47935751 -24.4375 29.5 C-24.45844727 28.89526855 -24.47939453 28.29053711 -24.50097656 27.66748047 C-24.58458945 24.90349229 -24.63630054 22.13977087 -24.6875 19.375 C-24.72101563 18.42367188 -24.75453125 17.47234375 -24.7890625 16.4921875 C-24.89036704 9.19826027 -23.60192032 6.17072757 -18.875 0.6875 C-13.97113957 -3.36351514 -5.39725477 -2.35516572 0 0 Z " fill="#008AE6" transform="translate(372.4375,1.5)"/>
<path d="M0 0 C3.75210895 1.89631424 6.39170913 4.32542944 8.3515625 8.13671875 C9.69618274 12.75732284 9.27735991 17.59347663 8.99609375 22.3515625 C9.78113281 22.30515625 10.56617188 22.25875 11.375 22.2109375 C18.22765059 21.97550901 22.54666638 22.0374325 27.99609375 26.3515625 C31.48424251 30.01859068 32.28889276 32.92552601 32.49609375 37.8515625 C32.30969678 42.75114004 31.34822063 45.62697708 27.99609375 49.3515625 C23.77754245 53.05877425 20.31919296 53.47331625 14.80859375 53.4140625 C13.17857422 53.40052734 13.17857422 53.40052734 11.515625 53.38671875 C10.68417969 53.37511719 9.85273438 53.36351562 8.99609375 53.3515625 C9.04830078 54.54652344 9.04830078 54.54652344 9.1015625 55.765625 C9.38048471 66.68343704 9.38048471 66.68343704 5.99609375 71.3515625 C0.81926373 76.02333593 -2.39744123 76.6993966 -9.23828125 76.63671875 C-14.05124055 76.1404673 -16.71924654 73.81341665 -19.81640625 70.2890625 C-22.10762334 66.55076093 -22.11245091 63.44621584 -22.06640625 59.1640625 C-22.05738281 58.07738281 -22.04835938 56.99070312 -22.0390625 55.87109375 C-22.02746094 55.03964844 -22.01585937 54.20820313 -22.00390625 53.3515625 C-22.87273437 53.39796875 -23.7415625 53.444375 -24.63671875 53.4921875 C-34.08247934 53.78802788 -34.08247934 53.78802788 -38.56640625 51.6640625 C-39.37078125 50.9009375 -40.17515625 50.1378125 -41.00390625 49.3515625 C-41.76703125 48.6296875 -42.53015625 47.9078125 -43.31640625 47.1640625 C-45.65831316 43.26088432 -46.32153655 39.88913816 -46.00390625 35.3515625 C-44.40673412 30.01512857 -41.72907481 26.38051671 -37.00390625 23.3515625 C-33.7187115 22.25649758 -31.2672721 22.25195642 -27.81640625 22.2890625 C-26.18638672 22.30259766 -26.18638672 22.30259766 -24.5234375 22.31640625 C-23.69199219 22.32800781 -22.86054688 22.33960938 -22.00390625 22.3515625 C-22.05611328 21.15660156 -22.05611328 21.15660156 -22.109375 19.9375 C-22.38829721 9.01968796 -22.38829721 9.01968796 -19.00390625 4.3515625 C-13.53047709 -0.71135948 -7.21153913 -2.33355847 0 0 Z " fill="#008AE6" transform="translate(480.00390625,368.6484375)"/>
<path d="M0 0 C3.69042482 2.05660568 5.53779519 4.26504893 7.203125 8.12890625 C8.33933178 12.54991596 8.11184251 16.9766021 7.8125 21.5 C8.66521484 21.46519531 8.66521484 21.46519531 9.53515625 21.4296875 C16.07636855 21.27680441 21.46534808 21.46580167 26.625 25.9375 C30.95417956 31.00882463 31.25068286 34.04278701 31.125 40.546875 C30.70236017 44.54082143 29.60936436 46.62953394 26.8125 49.5 C21.24718286 53.78101318 14.49020347 52.76750444 7.8125 52.5 C7.86470703 53.69496094 7.86470703 53.69496094 7.91796875 54.9140625 C8.19794728 65.87322205 8.19794728 65.87322205 4.8125 70.5 C1.1015234 74.2109766 -2.05427635 76.29086043 -7.375 76.8125 C-13.62748951 76.30000086 -17.61301333 74.35002183 -21.6875 69.5625 C-24.30386256 64.32977488 -23.49493021 58.17891922 -23.1875 52.5 C-24.12851562 52.54640625 -25.06953125 52.5928125 -26.0390625 52.640625 C-37.4834347 52.97234593 -37.4834347 52.97234593 -40.875 50.8125 C-44.90508866 46.78241134 -46.72434207 43.4142822 -47.25 37.62109375 C-47.10178097 32.59091046 -45.36817026 28.74626306 -41.9375 25.125 C-35.84115493 21.52261428 -30.06852188 21.21914196 -23.1875 21.5 C-23.23390625 20.71496094 -23.2803125 19.92992188 -23.328125 19.12109375 C-23.56223244 12.30689517 -23.63279765 7.83435718 -19.1875 2.5 C-13.10178148 -1.9223768 -7.04027051 -2.91501034 0 0 Z " fill="#008AE6" transform="translate(481.1875,91.5)"/>
</svg>
